<mxfile host="app.diagrams.net" modified="2022-11-05T19:19:10.549Z" agent="5.0 (Windows NT 10.0; Win64; x64) AppleWebKit/537.36 (KHTML, like Gecko) Chrome/107.0.0.0 Safari/537.36" etag="qJBTCieh6L4btx3cYhYT" version="20.5.2" type="github" pages="2">
  <diagram id="JG9od8WNnmngjM4mvanK" name="Strona-1">
    <mxGraphModel dx="3372" dy="914" grid="1" gridSize="10" guides="1" tooltips="1" connect="1" arrows="1" fold="1" page="1" pageScale="1" pageWidth="827" pageHeight="1169" math="0" shadow="0">
      <root>
        <mxCell id="0" />
        <mxCell id="1" parent="0" />
        <mxCell id="-oUVbTpMjviklPO3Q51p-1" value="Terminarz Stolarza" style="rounded=1;whiteSpace=wrap;html=1;" vertex="1" parent="1">
          <mxGeometry x="340" y="140" width="120" height="60" as="geometry" />
        </mxCell>
        <mxCell id="-oUVbTpMjviklPO3Q51p-49" value="" style="edgeStyle=orthogonalEdgeStyle;rounded=0;orthogonalLoop=1;jettySize=auto;html=1;" edge="1" parent="1" source="-oUVbTpMjviklPO3Q51p-2" target="-oUVbTpMjviklPO3Q51p-48">
          <mxGeometry relative="1" as="geometry" />
        </mxCell>
        <mxCell id="-oUVbTpMjviklPO3Q51p-52" value="" style="edgeStyle=orthogonalEdgeStyle;rounded=0;orthogonalLoop=1;jettySize=auto;html=1;" edge="1" parent="1" source="-oUVbTpMjviklPO3Q51p-2" target="-oUVbTpMjviklPO3Q51p-51">
          <mxGeometry relative="1" as="geometry" />
        </mxCell>
        <mxCell id="-oUVbTpMjviklPO3Q51p-54" value="" style="edgeStyle=orthogonalEdgeStyle;rounded=0;orthogonalLoop=1;jettySize=auto;html=1;" edge="1" parent="1" source="-oUVbTpMjviklPO3Q51p-2" target="-oUVbTpMjviklPO3Q51p-53">
          <mxGeometry relative="1" as="geometry" />
        </mxCell>
        <mxCell id="-oUVbTpMjviklPO3Q51p-2" value="Kalendarz zleceń" style="rounded=1;whiteSpace=wrap;html=1;" vertex="1" parent="1">
          <mxGeometry x="-580" y="270" width="120" height="60" as="geometry" />
        </mxCell>
        <mxCell id="-oUVbTpMjviklPO3Q51p-28" value="" style="edgeStyle=orthogonalEdgeStyle;rounded=0;orthogonalLoop=1;jettySize=auto;html=1;entryX=0.5;entryY=0;entryDx=0;entryDy=0;" edge="1" parent="1" source="-oUVbTpMjviklPO3Q51p-3" target="-oUVbTpMjviklPO3Q51p-31">
          <mxGeometry relative="1" as="geometry">
            <mxPoint x="400" y="440" as="targetPoint" />
          </mxGeometry>
        </mxCell>
        <mxCell id="-oUVbTpMjviklPO3Q51p-30" value="" style="edgeStyle=orthogonalEdgeStyle;rounded=0;orthogonalLoop=1;jettySize=auto;html=1;" edge="1" parent="1" source="-oUVbTpMjviklPO3Q51p-3" target="-oUVbTpMjviklPO3Q51p-29">
          <mxGeometry relative="1" as="geometry" />
        </mxCell>
        <mxCell id="fV8Mvjy1AlXJInZVKJmO-3" value="" style="edgeStyle=orthogonalEdgeStyle;rounded=0;orthogonalLoop=1;jettySize=auto;html=1;" edge="1" parent="1" source="-oUVbTpMjviklPO3Q51p-3" target="-oUVbTpMjviklPO3Q51p-33">
          <mxGeometry relative="1" as="geometry" />
        </mxCell>
        <mxCell id="-oUVbTpMjviklPO3Q51p-3" value="Lista zakupów podzielona na sklepy" style="rounded=1;whiteSpace=wrap;html=1;" vertex="1" parent="1">
          <mxGeometry x="340" y="270" width="120" height="60" as="geometry" />
        </mxCell>
        <mxCell id="-oUVbTpMjviklPO3Q51p-4" value="Kalkulator Zysków" style="rounded=1;whiteSpace=wrap;html=1;" vertex="1" parent="1">
          <mxGeometry x="1040" y="270" width="120" height="60" as="geometry" />
        </mxCell>
        <mxCell id="-oUVbTpMjviklPO3Q51p-8" value="" style="shape=flexArrow;endArrow=classic;html=1;rounded=0;exitX=0;exitY=0.75;exitDx=0;exitDy=0;" edge="1" parent="1" source="-oUVbTpMjviklPO3Q51p-1">
          <mxGeometry width="50" height="50" relative="1" as="geometry">
            <mxPoint x="390" y="580" as="sourcePoint" />
            <mxPoint x="-460" y="280" as="targetPoint" />
          </mxGeometry>
        </mxCell>
        <mxCell id="-oUVbTpMjviklPO3Q51p-9" value="" style="shape=flexArrow;endArrow=classic;html=1;rounded=0;exitX=0.5;exitY=1;exitDx=0;exitDy=0;entryX=0.5;entryY=0;entryDx=0;entryDy=0;" edge="1" parent="1" source="-oUVbTpMjviklPO3Q51p-1" target="-oUVbTpMjviklPO3Q51p-3">
          <mxGeometry width="50" height="50" relative="1" as="geometry">
            <mxPoint x="390" y="580" as="sourcePoint" />
            <mxPoint x="440" y="530" as="targetPoint" />
          </mxGeometry>
        </mxCell>
        <mxCell id="-oUVbTpMjviklPO3Q51p-10" value="" style="shape=flexArrow;endArrow=classic;html=1;rounded=0;exitX=1;exitY=0.75;exitDx=0;exitDy=0;entryX=0.25;entryY=0;entryDx=0;entryDy=0;" edge="1" parent="1" source="-oUVbTpMjviklPO3Q51p-1" target="-oUVbTpMjviklPO3Q51p-4">
          <mxGeometry width="50" height="50" relative="1" as="geometry">
            <mxPoint x="390" y="580" as="sourcePoint" />
            <mxPoint x="440" y="530" as="targetPoint" />
          </mxGeometry>
        </mxCell>
        <mxCell id="-oUVbTpMjviklPO3Q51p-17" value="" style="edgeStyle=orthogonalEdgeStyle;rounded=0;orthogonalLoop=1;jettySize=auto;html=1;startArrow=none;" edge="1" parent="1" source="-oUVbTpMjviklPO3Q51p-11" target="-oUVbTpMjviklPO3Q51p-16">
          <mxGeometry relative="1" as="geometry" />
        </mxCell>
        <mxCell id="-oUVbTpMjviklPO3Q51p-19" value="" style="edgeStyle=orthogonalEdgeStyle;rounded=0;orthogonalLoop=1;jettySize=auto;html=1;" edge="1" parent="1" source="-oUVbTpMjviklPO3Q51p-12" target="-oUVbTpMjviklPO3Q51p-18">
          <mxGeometry relative="1" as="geometry" />
        </mxCell>
        <mxCell id="-oUVbTpMjviklPO3Q51p-21" value="" style="edgeStyle=orthogonalEdgeStyle;rounded=0;orthogonalLoop=1;jettySize=auto;html=1;startArrow=none;" edge="1" parent="1" source="-oUVbTpMjviklPO3Q51p-12" target="-oUVbTpMjviklPO3Q51p-20">
          <mxGeometry relative="1" as="geometry" />
        </mxCell>
        <mxCell id="-oUVbTpMjviklPO3Q51p-13" value="Dodawanie dochodów oraz wydatków" style="rounded=1;whiteSpace=wrap;html=1;" vertex="1" parent="1">
          <mxGeometry x="1300" y="420" width="120" height="60" as="geometry" />
        </mxCell>
        <mxCell id="-oUVbTpMjviklPO3Q51p-16" value="Edycja Typu transakcji" style="whiteSpace=wrap;html=1;rounded=1;" vertex="1" parent="1">
          <mxGeometry x="760" y="540" width="120" height="60" as="geometry" />
        </mxCell>
        <mxCell id="-oUVbTpMjviklPO3Q51p-18" value="Edycja Kwoty" style="whiteSpace=wrap;html=1;rounded=1;" vertex="1" parent="1">
          <mxGeometry x="940" y="540" width="120" height="60" as="geometry" />
        </mxCell>
        <mxCell id="-oUVbTpMjviklPO3Q51p-23" value="" style="edgeStyle=orthogonalEdgeStyle;rounded=0;orthogonalLoop=1;jettySize=auto;html=1;" edge="1" parent="1" source="-oUVbTpMjviklPO3Q51p-20" target="-oUVbTpMjviklPO3Q51p-22">
          <mxGeometry relative="1" as="geometry" />
        </mxCell>
        <mxCell id="-oUVbTpMjviklPO3Q51p-20" value="Wybieranie typu transakcji" style="whiteSpace=wrap;html=1;rounded=1;" vertex="1" parent="1">
          <mxGeometry x="1150" y="540" width="120" height="60" as="geometry" />
        </mxCell>
        <mxCell id="-oUVbTpMjviklPO3Q51p-22" value="Wprowadzenie kwoty transakcji" style="whiteSpace=wrap;html=1;rounded=1;" vertex="1" parent="1">
          <mxGeometry x="1150" y="660" width="120" height="60" as="geometry" />
        </mxCell>
        <mxCell id="-oUVbTpMjviklPO3Q51p-24" value="" style="endArrow=classic;html=1;rounded=0;exitX=0;exitY=0.5;exitDx=0;exitDy=0;entryX=0.5;entryY=0;entryDx=0;entryDy=0;" edge="1" parent="1" source="-oUVbTpMjviklPO3Q51p-4" target="-oUVbTpMjviklPO3Q51p-11">
          <mxGeometry width="50" height="50" relative="1" as="geometry">
            <mxPoint x="390" y="530" as="sourcePoint" />
            <mxPoint x="440" y="480" as="targetPoint" />
          </mxGeometry>
        </mxCell>
        <mxCell id="-oUVbTpMjviklPO3Q51p-25" value="" style="endArrow=classic;html=1;rounded=0;exitX=0.5;exitY=1;exitDx=0;exitDy=0;entryX=0.5;entryY=0;entryDx=0;entryDy=0;" edge="1" parent="1" source="-oUVbTpMjviklPO3Q51p-4" target="-oUVbTpMjviklPO3Q51p-12">
          <mxGeometry width="50" height="50" relative="1" as="geometry">
            <mxPoint x="390" y="530" as="sourcePoint" />
            <mxPoint x="440" y="480" as="targetPoint" />
          </mxGeometry>
        </mxCell>
        <mxCell id="-oUVbTpMjviklPO3Q51p-26" value="" style="endArrow=classic;html=1;rounded=0;exitX=1;exitY=0.5;exitDx=0;exitDy=0;entryX=0.5;entryY=0;entryDx=0;entryDy=0;" edge="1" parent="1" source="-oUVbTpMjviklPO3Q51p-4" target="-oUVbTpMjviklPO3Q51p-13">
          <mxGeometry width="50" height="50" relative="1" as="geometry">
            <mxPoint x="390" y="530" as="sourcePoint" />
            <mxPoint x="440" y="480" as="targetPoint" />
          </mxGeometry>
        </mxCell>
        <mxCell id="-oUVbTpMjviklPO3Q51p-35" value="" style="edgeStyle=orthogonalEdgeStyle;rounded=0;orthogonalLoop=1;jettySize=auto;html=1;" edge="1" parent="1" source="-oUVbTpMjviklPO3Q51p-29" target="-oUVbTpMjviklPO3Q51p-34">
          <mxGeometry relative="1" as="geometry" />
        </mxCell>
        <mxCell id="-oUVbTpMjviklPO3Q51p-37" value="" style="edgeStyle=orthogonalEdgeStyle;rounded=0;orthogonalLoop=1;jettySize=auto;html=1;" edge="1" parent="1" source="-oUVbTpMjviklPO3Q51p-29" target="-oUVbTpMjviklPO3Q51p-36">
          <mxGeometry relative="1" as="geometry" />
        </mxCell>
        <mxCell id="-oUVbTpMjviklPO3Q51p-44" value="" style="edgeStyle=orthogonalEdgeStyle;rounded=0;orthogonalLoop=1;jettySize=auto;html=1;" edge="1" parent="1" source="-oUVbTpMjviklPO3Q51p-29" target="-oUVbTpMjviklPO3Q51p-43">
          <mxGeometry relative="1" as="geometry" />
        </mxCell>
        <mxCell id="-oUVbTpMjviklPO3Q51p-29" value="Wybór sklepu" style="whiteSpace=wrap;html=1;rounded=1;" vertex="1" parent="1">
          <mxGeometry y="420" width="120" height="60" as="geometry" />
        </mxCell>
        <mxCell id="-oUVbTpMjviklPO3Q51p-31" value="Usuwanie Sklepów" style="whiteSpace=wrap;html=1;rounded=1;" vertex="1" parent="1">
          <mxGeometry x="510" y="420" width="120" height="60" as="geometry" />
        </mxCell>
        <mxCell id="-oUVbTpMjviklPO3Q51p-12" value="Edycja dochodów oraz wydatków" style="rounded=1;whiteSpace=wrap;html=1;" vertex="1" parent="1">
          <mxGeometry x="1040" y="420" width="120" height="60" as="geometry" />
        </mxCell>
        <mxCell id="-oUVbTpMjviklPO3Q51p-33" value="Edycja/Dodawanie Sklepów" style="rounded=1;whiteSpace=wrap;html=1;" vertex="1" parent="1">
          <mxGeometry x="340" y="420" width="120" height="60" as="geometry" />
        </mxCell>
        <mxCell id="-oUVbTpMjviklPO3Q51p-34" value="Wprowadzenie pozycji na listę zakupów" style="whiteSpace=wrap;html=1;rounded=1;" vertex="1" parent="1">
          <mxGeometry x="-170" y="540" width="120" height="60" as="geometry" />
        </mxCell>
        <mxCell id="-oUVbTpMjviklPO3Q51p-39" value="" style="edgeStyle=orthogonalEdgeStyle;rounded=0;orthogonalLoop=1;jettySize=auto;html=1;" edge="1" parent="1" source="-oUVbTpMjviklPO3Q51p-36" target="-oUVbTpMjviklPO3Q51p-38">
          <mxGeometry relative="1" as="geometry" />
        </mxCell>
        <mxCell id="-oUVbTpMjviklPO3Q51p-36" value="Podgląd Listy" style="whiteSpace=wrap;html=1;rounded=1;" vertex="1" parent="1">
          <mxGeometry y="540" width="120" height="60" as="geometry" />
        </mxCell>
        <mxCell id="-oUVbTpMjviklPO3Q51p-38" value="Zaznaczenie zakupionych towarów" style="whiteSpace=wrap;html=1;rounded=1;" vertex="1" parent="1">
          <mxGeometry y="660" width="120" height="60" as="geometry" />
        </mxCell>
        <mxCell id="-oUVbTpMjviklPO3Q51p-47" value="" style="edgeStyle=orthogonalEdgeStyle;rounded=0;orthogonalLoop=1;jettySize=auto;html=1;" edge="1" parent="1" source="-oUVbTpMjviklPO3Q51p-43" target="-oUVbTpMjviklPO3Q51p-46">
          <mxGeometry relative="1" as="geometry" />
        </mxCell>
        <mxCell id="-oUVbTpMjviklPO3Q51p-43" value="Edycja Listy zakupów" style="whiteSpace=wrap;html=1;rounded=1;" vertex="1" parent="1">
          <mxGeometry x="190" y="540" width="120" height="60" as="geometry" />
        </mxCell>
        <mxCell id="-oUVbTpMjviklPO3Q51p-46" value="Edytowanie Materiałów" style="whiteSpace=wrap;html=1;rounded=1;" vertex="1" parent="1">
          <mxGeometry x="190" y="660" width="120" height="60" as="geometry" />
        </mxCell>
        <mxCell id="-oUVbTpMjviklPO3Q51p-56" value="" style="edgeStyle=orthogonalEdgeStyle;rounded=0;orthogonalLoop=1;jettySize=auto;html=1;" edge="1" parent="1" source="-oUVbTpMjviklPO3Q51p-48" target="-oUVbTpMjviklPO3Q51p-55">
          <mxGeometry relative="1" as="geometry" />
        </mxCell>
        <mxCell id="-oUVbTpMjviklPO3Q51p-48" value="Wprowadzanie Zleceń" style="whiteSpace=wrap;html=1;rounded=1;" vertex="1" parent="1">
          <mxGeometry x="-460" y="420" width="120" height="60" as="geometry" />
        </mxCell>
        <mxCell id="-oUVbTpMjviklPO3Q51p-60" value="" style="edgeStyle=orthogonalEdgeStyle;rounded=0;orthogonalLoop=1;jettySize=auto;html=1;" edge="1" parent="1" source="-oUVbTpMjviklPO3Q51p-50" target="-oUVbTpMjviklPO3Q51p-59">
          <mxGeometry relative="1" as="geometry" />
        </mxCell>
        <mxCell id="-oUVbTpMjviklPO3Q51p-50" value="Edycja Zleceń" style="whiteSpace=wrap;html=1;rounded=1;" vertex="1" parent="1">
          <mxGeometry x="-660" y="420" width="120" height="60" as="geometry" />
        </mxCell>
        <mxCell id="-oUVbTpMjviklPO3Q51p-51" value="Usuwanie zleceń" style="whiteSpace=wrap;html=1;rounded=1;" vertex="1" parent="1">
          <mxGeometry x="-280" y="420" width="120" height="60" as="geometry" />
        </mxCell>
        <mxCell id="-oUVbTpMjviklPO3Q51p-53" value="Powiadomienie o kończącym się terminie zlecenia" style="whiteSpace=wrap;html=1;rounded=1;" vertex="1" parent="1">
          <mxGeometry x="-960" y="420" width="120" height="60" as="geometry" />
        </mxCell>
        <mxCell id="-oUVbTpMjviklPO3Q51p-58" value="" style="edgeStyle=orthogonalEdgeStyle;rounded=0;orthogonalLoop=1;jettySize=auto;html=1;" edge="1" parent="1" source="-oUVbTpMjviklPO3Q51p-55" target="-oUVbTpMjviklPO3Q51p-57">
          <mxGeometry relative="1" as="geometry" />
        </mxCell>
        <mxCell id="-oUVbTpMjviklPO3Q51p-55" value="Wprowadzenie danych klienta" style="whiteSpace=wrap;html=1;rounded=1;" vertex="1" parent="1">
          <mxGeometry x="-460" y="540" width="120" height="60" as="geometry" />
        </mxCell>
        <mxCell id="-oUVbTpMjviklPO3Q51p-57" value="Wprowadzenie szczegółów zlecenia" style="whiteSpace=wrap;html=1;rounded=1;" vertex="1" parent="1">
          <mxGeometry x="-460" y="660" width="120" height="60" as="geometry" />
        </mxCell>
        <mxCell id="-oUVbTpMjviklPO3Q51p-59" value="Edytowanie danych Klienta" style="whiteSpace=wrap;html=1;rounded=1;" vertex="1" parent="1">
          <mxGeometry x="-800" y="540" width="120" height="60" as="geometry" />
        </mxCell>
        <mxCell id="-oUVbTpMjviklPO3Q51p-62" value="Edytowanie szczegółów zlecenia" style="rounded=1;whiteSpace=wrap;html=1;" vertex="1" parent="1">
          <mxGeometry x="-660" y="540" width="120" height="60" as="geometry" />
        </mxCell>
        <mxCell id="fV8Mvjy1AlXJInZVKJmO-1" value="" style="endArrow=classic;html=1;rounded=0;exitX=0.5;exitY=1;exitDx=0;exitDy=0;entryX=0.5;entryY=0;entryDx=0;entryDy=0;" edge="1" parent="1" source="-oUVbTpMjviklPO3Q51p-50" target="-oUVbTpMjviklPO3Q51p-62">
          <mxGeometry width="50" height="50" relative="1" as="geometry">
            <mxPoint x="-560" y="530" as="sourcePoint" />
            <mxPoint x="-430" y="500" as="targetPoint" />
            <Array as="points">
              <mxPoint x="-600" y="530" />
            </Array>
          </mxGeometry>
        </mxCell>
        <mxCell id="fV8Mvjy1AlXJInZVKJmO-2" value="" style="endArrow=classic;html=1;rounded=0;exitX=0.5;exitY=1;exitDx=0;exitDy=0;entryX=0.5;entryY=0;entryDx=0;entryDy=0;" edge="1" parent="1" source="-oUVbTpMjviklPO3Q51p-2" target="-oUVbTpMjviklPO3Q51p-50">
          <mxGeometry width="50" height="50" relative="1" as="geometry">
            <mxPoint x="-80" y="540" as="sourcePoint" />
            <mxPoint x="-650" y="370" as="targetPoint" />
            <Array as="points">
              <mxPoint x="-520" y="370" />
              <mxPoint x="-600" y="370" />
            </Array>
          </mxGeometry>
        </mxCell>
        <mxCell id="-oUVbTpMjviklPO3Q51p-11" value="Historia dochodów oraz wydatków" style="rounded=1;whiteSpace=wrap;html=1;" vertex="1" parent="1">
          <mxGeometry x="760" y="420" width="120" height="60" as="geometry" />
        </mxCell>
      </root>
    </mxGraphModel>
  </diagram>
  <diagram id="HPMX6xhg0ksQE-ta-hk8" name="Strona-2">
    <mxGraphModel dx="2062" dy="1097" grid="1" gridSize="10" guides="1" tooltips="1" connect="1" arrows="1" fold="1" page="1" pageScale="1" pageWidth="827" pageHeight="1169" math="0" shadow="0">
      <root>
        <mxCell id="0" />
        <mxCell id="1" parent="0" />
      </root>
    </mxGraphModel>
  </diagram>
</mxfile>
